<svg width="24" height="23" viewBox="0 0 24 23" fill="none" xmlns="http://www.w3.org/2000/svg">
<path fill-rule="evenodd" clip-rule="evenodd" d="M17.0024 20.1288H6.99825C4.78819 20.1288 2.99658 18.4118 2.99658 16.2939V8.62401C2.99658 7.56502 3.89239 6.70654 4.99742 6.70654H19.0032C20.1083 6.70654 21.0041 7.56502 21.0041 8.62401V16.2939C21.0041 18.4118 19.2125 20.1288 17.0024 20.1288Z" stroke="#323232" stroke-width="1.5" stroke-linecap="round" stroke-linejoin="round"/>
<path d="M7.99854 6.70651V4.78905C7.99854 3.73006 8.89434 2.87158 9.99937 2.87158H14.001C15.1061 2.87158 16.0019 3.73006 16.0019 4.78905V6.70651" stroke="#323232" stroke-width="1.5" stroke-linecap="round" stroke-linejoin="round"/>
<path d="M14.0007 11.9793H17.5021C19.4359 11.9793 21.0036 10.477 21.0036 8.62378M14.9995 11.9791L6.49755 11.9793C4.56375 11.9793 2.99609 10.477 2.99609 8.62378" stroke="#323232" stroke-width="1.5" stroke-linecap="round" stroke-linejoin="round"/>
</svg>
