<svg width="1080" height="1080" viewBox="0 0 1080 1080" fill="none" xmlns="http://www.w3.org/2000/svg">
<g clip-path="url(#clip0_230_10)">
<path d="M810 0C959.117 0 1080 120.883 1080 270V810C1080 959.117 959.117 1080 810 1080H270C120.883 1080 0 959.117 0 810V270C0 120.883 120.883 0 270 0H810ZM381.952 540C338.308 540 302.929 575.381 302.929 619.024V698.049C302.929 741.693 338.309 777.073 381.953 777.073C425.597 777.073 460.977 741.693 460.978 698.049V619.024C460.978 575.381 425.597 540 381.953 540H381.952ZM698.048 540C654.404 540 619.023 575.38 619.023 619.024V698.049C619.024 741.693 654.404 777.073 698.048 777.073C741.692 777.073 777.072 741.693 777.072 698.049V619.024C777.072 575.381 741.692 540 698.048 540Z" fill="white"/>
</g>
<defs>
<clipPath id="clip0_230_10">
<rect width="1080" height="1080" fill="white"/>
</clipPath>
</defs>
</svg>
