<svg width="1080" height="1080" viewBox="0 0 1080 1080" fill="none" xmlns="http://www.w3.org/2000/svg">
<g clip-path="url(#clip0_230_10)">
<path fill-rule="evenodd" clip-rule="evenodd" d="M540 0C794.558 0 921.838 -0.000114441 1000.92 79.0811C1080 158.162 1080 285.442 1080 540C1080 794.558 1080 921.838 1000.92 1000.92C921.838 1080 794.558 1080 540 1080C285.442 1080 158.162 1080 79.0811 1000.92C-0.000114441 921.838 0 794.558 0 540C0 285.442 -0.000114441 158.162 79.0811 79.0811C158.162 -0.000114441 285.442 0 540 0ZM381.952 540C338.308 540 302.929 575.381 302.929 619.024V698.049C302.929 741.693 338.309 777.073 381.953 777.073C425.597 777.073 460.977 741.693 460.978 698.049V619.024C460.978 575.381 425.596 540 381.952 540ZM698.048 540C654.404 540 619.023 575.38 619.023 619.024V698.049C619.024 741.693 654.404 777.073 698.048 777.073C741.692 777.073 777.072 741.693 777.072 698.049V619.024C777.072 575.381 741.692 540 698.048 540Z" fill="white"/>
<path fill-rule="evenodd" clip-rule="evenodd" d="M540 0C794.558 0 921.838 -0.000114441 1000.92 79.0811C1080 158.162 1080 285.442 1080 540C1080 794.558 1080 921.838 1000.92 1000.92C921.838 1080 794.558 1080 540 1080C285.442 1080 158.162 1080 79.0811 1000.92C-0.000114441 921.838 0 794.558 0 540C0 285.442 -0.000114441 158.162 79.0811 79.0811C158.162 -0.000114441 285.442 0 540 0ZM381.952 540C338.308 540 302.929 575.381 302.929 619.024V698.049C302.929 741.693 338.309 777.073 381.953 777.073C425.597 777.073 460.977 741.693 460.978 698.049V619.024C460.978 575.381 425.596 540 381.952 540ZM698.048 540C654.404 540 619.023 575.38 619.023 619.024V698.049C619.024 741.693 654.404 777.073 698.048 777.073C741.692 777.073 777.072 741.693 777.072 698.049V619.024C777.072 575.381 741.692 540 698.048 540Z" fill="white"/>
<path fill-rule="evenodd" clip-rule="evenodd" d="M540 0C794.558 0 921.838 -0.000114441 1000.92 79.0811C1080 158.162 1080 285.442 1080 540C1080 794.558 1080 921.838 1000.92 1000.92C921.838 1080 794.558 1080 540 1080C285.442 1080 158.162 1080 79.0811 1000.92C-0.000114441 921.838 0 794.558 0 540C0 285.442 -0.000114441 158.162 79.0811 79.0811C158.162 -0.000114441 285.442 0 540 0ZM381.952 540C338.308 540 302.929 575.381 302.929 619.024V698.049C302.929 741.693 338.309 777.073 381.953 777.073C425.597 777.073 460.977 741.693 460.978 698.049V619.024C460.978 575.381 425.596 540 381.952 540ZM698.048 540C654.404 540 619.023 575.38 619.023 619.024V698.049C619.024 741.693 654.404 777.073 698.048 777.073C741.692 777.073 777.072 741.693 777.072 698.049V619.024C777.072 575.381 741.692 540 698.048 540Z" fill="url(#paint0_radial_230_10)"/>
<path fill-rule="evenodd" clip-rule="evenodd" d="M540 0C794.558 0 921.838 -0.000114441 1000.92 79.0811C1080 158.162 1080 285.442 1080 540C1080 794.558 1080 921.838 1000.92 1000.92C921.838 1080 794.558 1080 540 1080C285.442 1080 158.162 1080 79.0811 1000.92C-0.000114441 921.838 0 794.558 0 540C0 285.442 -0.000114441 158.162 79.0811 79.0811C158.162 -0.000114441 285.442 0 540 0ZM381.952 540C338.308 540 302.929 575.381 302.929 619.024V698.049C302.929 741.693 338.309 777.073 381.953 777.073C425.597 777.073 460.977 741.693 460.978 698.049V619.024C460.978 575.381 425.596 540 381.952 540ZM698.048 540C654.404 540 619.023 575.38 619.023 619.024V698.049C619.024 741.693 654.404 777.073 698.048 777.073C741.692 777.073 777.072 741.693 777.072 698.049V619.024C777.072 575.381 741.692 540 698.048 540Z" fill="url(#paint1_radial_230_10)"/>
<path fill-rule="evenodd" clip-rule="evenodd" d="M540 0C794.558 0 921.838 -0.000114441 1000.92 79.0811C1080 158.162 1080 285.442 1080 540C1080 794.558 1080 921.838 1000.92 1000.92C921.838 1080 794.558 1080 540 1080C285.442 1080 158.162 1080 79.0811 1000.92C-0.000114441 921.838 0 794.558 0 540C0 285.442 -0.000114441 158.162 79.0811 79.0811C158.162 -0.000114441 285.442 0 540 0ZM381.952 540C338.308 540 302.929 575.381 302.929 619.024V698.049C302.929 741.693 338.309 777.073 381.953 777.073C425.597 777.073 460.977 741.693 460.978 698.049V619.024C460.978 575.381 425.596 540 381.952 540ZM698.048 540C654.404 540 619.023 575.38 619.023 619.024V698.049C619.024 741.693 654.404 777.073 698.048 777.073C741.692 777.073 777.072 741.693 777.072 698.049V619.024C777.072 575.381 741.692 540 698.048 540Z" fill="url(#paint2_radial_230_10)"/>
<path fill-rule="evenodd" clip-rule="evenodd" d="M540 0C794.558 0 921.838 -0.000114441 1000.92 79.0811C1080 158.162 1080 285.442 1080 540C1080 794.558 1080 921.838 1000.92 1000.92C921.838 1080 794.558 1080 540 1080C285.442 1080 158.162 1080 79.0811 1000.92C-0.000114441 921.838 0 794.558 0 540C0 285.442 -0.000114441 158.162 79.0811 79.0811C158.162 -0.000114441 285.442 0 540 0ZM381.952 540C338.308 540 302.929 575.381 302.929 619.024V698.049C302.929 741.693 338.309 777.073 381.953 777.073C425.597 777.073 460.977 741.693 460.978 698.049V619.024C460.978 575.381 425.596 540 381.952 540ZM698.048 540C654.404 540 619.023 575.38 619.023 619.024V698.049C619.024 741.693 654.404 777.073 698.048 777.073C741.692 777.073 777.072 741.693 777.072 698.049V619.024C777.072 575.381 741.692 540 698.048 540Z" fill="url(#paint3_radial_230_10)"/>
</g>
<defs>
<radialGradient id="paint0_radial_230_10" cx="0" cy="0" r="1" gradientUnits="userSpaceOnUse" gradientTransform="translate(1080 1080) rotate(-135) scale(1191.85)">
<stop stop-color="#FFF96F"/>
<stop offset="1" stop-color="#FFF96F" stop-opacity="0"/>
</radialGradient>
<radialGradient id="paint1_radial_230_10" cx="0" cy="0" r="1" gradientUnits="userSpaceOnUse" gradientTransform="translate(1080) rotate(135) scale(824.443)">
<stop stop-color="#FF7BCA"/>
<stop offset="1" stop-color="#FF7BCA" stop-opacity="0"/>
</radialGradient>
<radialGradient id="paint2_radial_230_10" cx="0" cy="0" r="1" gradientUnits="userSpaceOnUse" gradientTransform="translate(15.311 1080) rotate(-45.8962) scale(692.166)">
<stop stop-color="#62D4DD"/>
<stop offset="1" stop-color="#62D4DD" stop-opacity="0"/>
</radialGradient>
<radialGradient id="paint3_radial_230_10" cx="0" cy="0" r="1" gradientUnits="userSpaceOnUse" gradientTransform="rotate(45) scale(962.278)">
<stop stop-color="#7349D4"/>
<stop offset="1" stop-color="#7349D4" stop-opacity="0"/>
</radialGradient>
<clipPath id="clip0_230_10">
<rect width="1080" height="1080" fill="white"/>
</clipPath>
</defs>
</svg>
