<svg width="263" height="80" viewBox="0 0 263 80" fill="none" xmlns="http://www.w3.org/2000/svg">
<rect width="80" height="80" rx="20" fill="white"/>
<rect width="80" height="80" rx="20" fill="url(#paint0_radial_214_9)"/>
<rect width="80" height="80" rx="20" fill="url(#paint1_radial_214_9)"/>
<rect width="80" height="80" rx="20" fill="url(#paint2_radial_214_9)"/>
<rect width="80" height="80" rx="20" fill="url(#paint3_radial_214_9)"/>
<rect width="80" height="80" rx="20" fill="white"/>
<rect x="45.8535" y="40" width="11.7073" height="17.561" rx="5.85366" fill="#202020"/>
<rect x="22.4395" y="40" width="11.7073" height="17.561" rx="5.85366" fill="#202020"/>
<path d="M100.032 56.864L126.672 20.072V22.736H100.032V14.6H135.312V22.736L108.672 59.528V56.864H135.312V65H100.032V56.864ZM152.829 66.152C150.285 66.152 148.125 65.552 146.349 64.352C144.573 63.104 143.205 61.328 142.245 59.024C141.333 56.672 140.877 53.84 140.877 50.528V29H150.597V50.096C150.597 52.592 151.101 54.536 152.109 55.928C153.165 57.32 154.629 58.016 156.501 58.016C158.901 58.016 160.821 56.96 162.261 54.848C163.749 52.736 164.493 49.952 164.493 46.496L166.365 50.096C166.365 53.264 165.789 56.072 164.637 58.52C163.533 60.92 161.949 62.792 159.885 64.136C157.869 65.48 155.517 66.152 152.829 66.152ZM164.493 29H174.213V65H164.493V29ZM206.131 43.904C206.131 41.408 205.603 39.464 204.547 38.072C203.539 36.68 202.099 35.984 200.227 35.984C197.827 35.984 195.883 37.04 194.395 39.152C192.955 41.264 192.235 44.048 192.235 47.504L190.363 43.904C190.363 40.736 190.915 37.952 192.019 35.552C193.171 33.104 194.755 31.208 196.771 29.864C198.835 28.52 201.211 27.848 203.899 27.848C206.443 27.848 208.603 28.472 210.379 29.72C212.155 30.92 213.499 32.696 214.411 35.048C215.371 37.352 215.851 40.16 215.851 43.472V65H206.131V43.904ZM182.515 29H192.235V65H182.515V29ZM241.275 66.152C237.675 66.152 234.435 65.336 231.555 63.704C228.723 62.072 226.491 59.816 224.859 56.936C223.275 54.008 222.483 50.696 222.483 47C222.483 43.304 223.275 40.016 224.859 37.136C226.491 34.208 228.723 31.928 231.555 30.296C234.435 28.664 237.675 27.848 241.275 27.848C244.875 27.848 248.091 28.664 250.923 30.296C253.755 31.928 255.963 34.208 257.547 37.136C259.179 40.016 259.995 43.304 259.995 47C259.995 50.696 259.179 54.008 257.547 56.936C255.963 59.816 253.755 62.072 250.923 63.704C248.091 65.336 244.875 66.152 241.275 66.152ZM241.275 58.016C243.051 58.016 244.611 57.56 245.955 56.648C247.299 55.736 248.331 54.464 249.051 52.832C249.771 51.152 250.131 49.208 250.131 47C250.131 44.792 249.771 42.872 249.051 41.24C248.331 39.56 247.299 38.264 245.955 37.352C244.611 36.44 243.051 35.984 241.275 35.984C239.499 35.984 237.939 36.44 236.595 37.352C235.251 38.264 234.219 39.56 233.499 41.24C232.779 42.872 232.419 44.792 232.419 47C232.419 49.208 232.779 51.152 233.499 52.832C234.219 54.464 235.251 55.736 236.595 56.648C237.939 57.56 239.499 58.016 241.275 58.016Z" fill="white"/>
<defs>
<radialGradient id="paint0_radial_214_9" cx="0" cy="0" r="1" gradientUnits="userSpaceOnUse" gradientTransform="rotate(45) scale(71.2798)">
<stop stop-color="#7349D4"/>
<stop offset="1" stop-color="#7349D4" stop-opacity="0"/>
</radialGradient>
<radialGradient id="paint1_radial_214_9" cx="0" cy="0" r="1" gradientUnits="userSpaceOnUse" gradientTransform="translate(80 80) rotate(-135) scale(88.2849)">
<stop stop-color="#FFF96F"/>
<stop offset="1" stop-color="#FFF96F" stop-opacity="0"/>
</radialGradient>
<radialGradient id="paint2_radial_214_9" cx="0" cy="0" r="1" gradientUnits="userSpaceOnUse" gradientTransform="translate(80) rotate(135) scale(61.0699)">
<stop stop-color="#FF7BCA"/>
<stop offset="1" stop-color="#FF7BCA" stop-opacity="0"/>
</radialGradient>
<radialGradient id="paint3_radial_214_9" cx="0" cy="0" r="1" gradientUnits="userSpaceOnUse" gradientTransform="translate(1.13415 80) rotate(-45.8962) scale(51.2715)">
<stop stop-color="#62D4DD"/>
<stop offset="1" stop-color="#62D4DD" stop-opacity="0"/>
</radialGradient>
</defs>
</svg>
